<?xml version="1.0" encoding="utf-8"?>
<!-- Generator: Adobe Illustrator 22.0.1, SVG Export Plug-In . SVG Version: 6.00 Build 0)  -->
<svg version="1.1" id="Layer_1" xmlns="http://www.w3.org/2000/svg" xmlns:xlink="http://www.w3.org/1999/xlink" x="0px" y="0px"
	 width="200px" height="250px" viewBox="0 0 200 250" style="enable-background:new 0 0 200 250;" xml:space="preserve">
<style type="text/css">
	.st0{fill:#FFFFFF;stroke:#4DA4F9;stroke-miterlimit:10;}
	.st1{fill:#4DA4F9;}
	.st2{fill:none;stroke:#FFFFFF;stroke-width:2;stroke-linecap:square;stroke-miterlimit:10;}
	.st3{fill:none;stroke:#ABABAB;stroke-miterlimit:10;}
	.st4{fill:none;stroke:#4DA4F9;stroke-miterlimit:10;}
	.st5{fill:none;stroke:#FDA729;stroke-miterlimit:10;}
	.st6{fill:#FDA729;}
	.st7{fill:#777777;}
	.st8{fill:none;stroke:#222222;stroke-miterlimit:10;}
	.st9{fill:#FF9C1C;}
	.st10{fill:none;stroke:#FFFFFF;stroke-linecap:round;stroke-linejoin:round;stroke-miterlimit:10;}
	.st11{fill:none;stroke:#737373;stroke-miterlimit:10;}
	.st12{fill:none;stroke:#777777;stroke-width:0.9683;stroke-miterlimit:10;}
	.st13{fill:none;stroke:#8EC658;stroke-miterlimit:10;}
	.st14{fill:none;stroke:#8EC658;stroke-linecap:round;stroke-linejoin:round;stroke-miterlimit:10;}
	.st15{fill:#2593E7;}
	.st16{fill:#FFFFFF;}
	.st17{fill:none;stroke:#3554CE;stroke-width:1.5;stroke-miterlimit:10;}
	.st18{fill:#333333;}
</style>
<path class="st0" d="M34.5,34.5h-14v-14h14V34.5z"/>
<path class="st1" d="M70,35H55V20h15V35z"/>
<path class="st2" d="M59.1,27.9l2,2l5-5"/>
<circle class="st3" cx="97.1" cy="27.1" r="9.9"/>
<circle class="st4" cx="132.1" cy="27.1" r="9.9"/>
<circle class="st1" cx="167" cy="27" r="10"/>
<circle class="st5" cx="106" cy="70.9" r="8.5"/>
<path class="st6" d="M106,65.8L106,65.8c0.6,0,1,0.5,1,1l-0.5,6h-0.9l-0.5-6C105,66.2,105.4,65.8,106,65.8z"/>
<circle class="st6" cx="106" cy="74.8" r="1.3"/>
<rect x="30.7" y="68.9" class="st7" width="0.8" height="0.8"/>
<rect x="32.3" y="68.9" class="st7" width="0.8" height="0.8"/>
<rect x="34" y="68.9" class="st7" width="0.8" height="0.8"/>
<rect x="30.7" y="70.5" class="st7" width="0.8" height="0.8"/>
<rect x="32.3" y="70.5" class="st7" width="0.8" height="0.8"/>
<rect x="34" y="70.5" class="st7" width="0.8" height="0.8"/>
<rect x="30.7" y="72.2" class="st7" width="0.8" height="0.8"/>
<rect x="32.3" y="72.2" class="st7" width="0.8" height="0.8"/>
<rect x="34" y="72.2" class="st7" width="0.8" height="0.8"/>
<path class="st7" d="M36.5,77.2V66.4H34v-4.9l-8.3-3.2v3.9h-4.2v15h-1.6V78h1.7H29h0.8h6.6h1.7v-0.8H36.5z M26.5,59.5l6.7,2.5v4.3
	h-3.3v-4.1h-3.3v-2.7C26.6,59.5,26.5,59.5,26.5,59.5z M23.2,64.7h5v0.8h-5V64.7z M23.2,67.2h5V68h-5V67.2z M23.2,69.7h5v0.8h-5V69.7
	z M24,77.2V73h3.3v4.2H24z M34.8,77.2v-3.3H34v3.3h-0.8v-3.3h-0.8v3.3h-0.8v-3.3h-0.8v3.3H30v-10h3.7H34l0,0h1.7v10H34.8z"/>
<polyline class="st8" points="64.6,77.6 58,71.5 64.6,64.4 "/>
<line class="st8" x1="76.5" y1="71.5" x2="58.5" y2="71.5"/>
<path class="st9" d="M150,64v1h1v14h-14V65h1v-1h-2v16h16V64H150z M146,64h-4v1h4V64z M141,63h-2v3h2V63z M149,63h-2v3h2V63z
	 M145,77h-2v-2h2V77z M141,77h-2v-2h2V77z M149,77h-2v-2h2V77z M145,74h-2v-2h2V74z M141,74h-2v-2h2V74z M149,74h-2v-2h2V74z
	 M145,71h-2v-2h2V71z M141,71h-2v-2h2V71z M149,71h-2v-2h2V71z"/>
<polyline class="st10" points="161.4,26.8 165.2,30.7 172.7,23.6 "/>
<polyline class="st5" points="30.7,120.1 16.4,120.1 16.4,93.5 37.3,93.5 37.3,111.6 "/>
<line class="st5" x1="19.3" y1="99.2" x2="26.9" y2="99.2"/>
<line class="st5" x1="19.3" y1="103" x2="34.5" y2="103"/>
<line class="st5" x1="32.6" y1="118.2" x2="42.1" y2="118.2"/>
<line class="st5" x1="37.3" y1="113.5" x2="37.3" y2="123"/>
<polyline class="st11" points="65.4,101.9 59.8,107.5 65.4,113.1 "/>
<polyline class="st11" points="95.8,113.1 101.4,107.5 95.8,101.9 "/>
<rect x="125" y="104.8" transform="matrix(0.7071 -0.7071 0.7071 0.7071 -37.4106 123.4382)" class="st12" width="10.6" height="4.2"/>
<polyline class="st7" points="127,114 123,114 123,110 "/>
<circle class="st13" cx="168.6" cy="104.1" r="13.2"/>
<polyline class="st14" points="160.7,104.5 165.2,109.2 176.5,98.7 "/>
<path class="st15" d="M48.4,166.8h-22c-6,0-11-4.9-11-11l0,0c0-6,4.9-11,11-11h22c6,0,11,4.9,11,11l0,0
	C59.4,161.9,54.5,166.8,48.4,166.8z"/>
<circle class="st16" cx="48.2" cy="155.8" r="9"/>
<path class="st15" d="M48.4,209.8h-22c-6,0-11-4.9-11-11l0,0c0-6,4.9-11,11-11h22c6,0,11,4.9,11,11l0,0
	C59.4,204.9,54.5,209.8,48.4,209.8z"/>
<circle class="st16" cx="27.2" cy="198.8" r="9"/>
<polyline class="st17" points="77.8,155.9 80.8,159.1 88.3,152.1 "/>
<polygon class="st18" points="74.9,174.6 85.1,174.6 80,180.3 "/>
</svg>
